<svg xmlns="http://www.w3.org/2000/svg" viewBox="0 0 1024 768">
  <defs>
    <linearGradient id="sky" x1="0" y1="0" x2="1" y2="1">
      <stop offset="0" stop-color="#fff4c8"/>
      <stop offset="0.54" stop-color="#c9d8d0"/>
      <stop offset="1" stop-color="#2e3a4d"/>
    </linearGradient>
    <radialGradient id="light" cx="0.46" cy="0.22" r="0.52">
      <stop offset="0" stop-color="#fff9d5"/>
      <stop offset="0.38" stop-color="#f1d979" stop-opacity="0.72"/>
      <stop offset="1" stop-color="#f1d979" stop-opacity="0"/>
    </radialGradient>
  </defs>
  <rect width="1024" height="768" fill="url(#sky)"/>
  <rect width="1024" height="768" fill="url(#light)"/>
  <path d="M0 642 C184 586 322 604 478 666 C642 730 804 702 1024 588 L1024 768 L0 768 Z" fill="#1e2833"/>
  <g transform="translate(512 392)">
    <path d="M0 -210 C116 -146 174 -48 154 116 C132 246 66 334 0 386 C-66 334 -132 246 -154 116 C-174 -48 -116 -146 0 -210 Z" fill="#f4e5aa" stroke="#20242b" stroke-width="18"/>
    <path d="M0 -138 C72 -92 108 -26 94 88 C78 174 40 236 0 276 C-40 236 -78 174 -94 88 C-108 -26 -72 -92 0 -138 Z" fill="#d0b75c"/>
    <path d="M-146 92 C-70 40 70 40 146 92" fill="none" stroke="#fff7c9" stroke-width="18" stroke-linecap="round"/>
  </g>
  <path d="M120 188 C268 106 380 110 512 178 C646 246 786 228 914 142" fill="none" stroke="#ffffff" stroke-width="18" opacity="0.32"/>
</svg>
