<svg xmlns="http://www.w3.org/2000/svg" viewBox="0 0 1024 768">
  <defs>
    <linearGradient id="sky" x1="0" y1="0" x2="1" y2="1">
      <stop offset="0" stop-color="#f2d78b"/>
      <stop offset="0.5" stop-color="#7db7c7"/>
      <stop offset="1" stop-color="#28395f"/>
    </linearGradient>
    <radialGradient id="sun" cx="0.68" cy="0.24" r="0.44">
      <stop offset="0" stop-color="#fff5c7"/>
      <stop offset="0.32" stop-color="#f5c768" stop-opacity="0.72"/>
      <stop offset="1" stop-color="#5f6b93" stop-opacity="0"/>
    </radialGradient>
  </defs>
  <rect width="1024" height="768" fill="url(#sky)"/>
  <rect width="1024" height="768" fill="url(#sun)"/>
  <path d="M0 620 C180 530 290 545 430 610 C585 682 760 642 1024 500 L1024 768 L0 768 Z" fill="#1d2638" opacity="0.82"/>
  <path d="M102 640 C270 570 370 590 505 642 C640 695 790 690 962 604" fill="none" stroke="#e7d799" stroke-width="28" opacity="0.5"/>
  <g transform="translate(486 250)">
    <path d="M34 58 C78 92 104 154 99 226 L81 452 L-78 452 L-96 226 C-101 154 -76 92 -32 58 Z" fill="#1a2030"/>
    <circle cx="0" cy="32" r="42" fill="#242d42"/>
    <path d="M-170 214 C-86 178 83 178 170 214" fill="none" stroke="#d9c16a" stroke-width="22" stroke-linecap="round"/>
    <path d="M-58 146 L0 274 L58 146" fill="none" stroke="#f2e7ad" stroke-width="12" stroke-linecap="round"/>
  </g>
  <path d="M148 190 L292 112 L438 190 L438 318 L148 318 Z" fill="#d9bd69" opacity="0.64"/>
  <path d="M194 210 L292 158 L392 210" fill="none" stroke="#fff4c6" stroke-width="12" opacity="0.48"/>
</svg>
