<svg xmlns="http://www.w3.org/2000/svg" viewBox="0 0 1024 900">
  <defs>
    <linearGradient id="bg" x1="0" y1="0" x2="1" y2="1">
      <stop offset="0" stop-color="#f2e5b0"/>
      <stop offset="0.48" stop-color="#8196ad"/>
      <stop offset="1" stop-color="#20283a"/>
    </linearGradient>
    <radialGradient id="halo" cx="0.5" cy="0.2" r="0.45">
      <stop offset="0" stop-color="#fff3bc"/>
      <stop offset="0.48" stop-color="#dcb44f" stop-opacity="0.4"/>
      <stop offset="1" stop-color="#dcb44f" stop-opacity="0"/>
    </radialGradient>
  </defs>
  <rect width="1024" height="900" fill="url(#bg)"/>
  <rect width="1024" height="900" fill="url(#halo)"/>
  <path d="M0 765 C190 688 340 706 516 775 C676 838 850 825 1024 724 L1024 900 L0 900 Z" fill="#1a2131"/>
  <g transform="translate(512 294)">
    <path d="M-92 436 L-72 188 C-68 132 -44 84 0 48 C44 84 68 132 72 188 L92 436 Z" fill="#252b36"/>
    <circle cx="0" cy="18" r="48" fill="#2e3543"/>
    <path d="M-188 196 C-100 142 102 142 188 196" fill="none" stroke="#efe2a4" stroke-width="28" stroke-linecap="round"/>
    <path d="M-118 326 L0 168 L118 326" fill="none" stroke="#d5bd6f" stroke-width="18" stroke-linecap="round"/>
  </g>
  <path d="M148 166 C284 98 386 102 512 158 C648 218 770 204 900 124" fill="none" stroke="#ffffff" stroke-width="18" opacity="0.24"/>
</svg>
