<svg xmlns="http://www.w3.org/2000/svg" viewBox="0 0 1024 768">
  <defs>
    <linearGradient id="fire" x1="0" y1="0" x2="1" y2="1">
      <stop offset="0" stop-color="#ffd998"/>
      <stop offset="0.45" stop-color="#c96337"/>
      <stop offset="1" stop-color="#2b1720"/>
    </linearGradient>
    <radialGradient id="flare" cx="0.52" cy="0.28" r="0.5">
      <stop offset="0" stop-color="#fff6c7"/>
      <stop offset="0.38" stop-color="#ffad55" stop-opacity="0.68"/>
      <stop offset="1" stop-color="#ffad55" stop-opacity="0"/>
    </radialGradient>
  </defs>
  <rect width="1024" height="768" fill="url(#fire)"/>
  <rect width="1024" height="768" fill="url(#flare)"/>
  <path d="M0 612 C180 540 322 548 500 622 C676 696 834 674 1024 548 L1024 768 L0 768 Z" fill="#251421"/>
  <g transform="translate(512 404)">
    <path d="M-250 180 L-250 -92 L-146 -180 L-64 -112 L0 -206 L64 -112 L146 -180 L250 -92 L250 180 Z" fill="#3a2630" stroke="#f2c066" stroke-width="18"/>
    <path d="M-118 180 L-118 18 C-118 -66 -58 -118 0 -118 C58 -118 118 -66 118 18 L118 180 Z" fill="#171322"/>
    <path d="M-206 34 C-112 -18 112 -18 206 34" fill="none" stroke="#ffdf91" stroke-width="20" stroke-linecap="round"/>
  </g>
  <g fill="#fff1b5" opacity="0.82">
    <circle cx="216" cy="602" r="18"/>
    <circle cx="314" cy="578" r="14"/>
    <circle cx="732" cy="584" r="16"/>
    <circle cx="838" cy="546" r="12"/>
  </g>
</svg>
